<?xml version="1.0" encoding="UTF-8" standalone="no"?>
<!DOCTYPE svg PUBLIC "-//W3C//DTD SVG 1.1//EN" "http://www.w3.org/Graphics/SVG/1.1/DTD/svg11.dtd">
<svg width="100%" height="100%" viewBox="0 0 512 512" version="1.1" xmlns="http://www.w3.org/2000/svg" xmlns:xlink="http://www.w3.org/1999/xlink" xml:space="preserve" xmlns:serif="http://www.serif.com/" style="fill-rule:evenodd;clip-rule:evenodd;stroke-linejoin:round;stroke-miterlimit:2;">
    <g transform="matrix(1,0,0,1,-21168.3,-17806.9)">
        <g id="Logos">
        </g>
        <g transform="matrix(1.23692,1.94525e-17,-8.72859e-33,1.55612,20012.4,16132.3)">
            <g id="Lite-SVG-Logo" serif:id="Lite SVG Logo">
            </g>
        </g>
        <g id="Bento-Box-Logo" serif:id="Bento Box Logo" transform="matrix(0.266667,0,0,0.474074,21168.3,17806.9)">
            <rect x="0" y="0" width="1920" height="1080" style="fill:none;"/>
            <g transform="matrix(1.31276,0,0,1.31276,-195.364,102.065)">
                <g id="SVGID_1_" transform="matrix(3.75,0,0,2.10938,0,-7.27596e-12)">
                    <path d="M407.5,152.4C398.8,132.4 378.6,108.7 350.8,88.9C323.1,69 294.2,57.4 272.5,55.6C271.3,55.5 270.1,55.4 269,55.4L133.6,55.4C120.6,55.4 110.6,59.4 105.2,67.1L61.7,127.7C55.4,136.5 55.6,149.4 61.9,163.9C70.6,183.9 90.9,207.6 118.6,227.4C146.4,247.3 175.3,258.9 197,260.7C198.7,260.8 200.3,260.9 201.9,260.9L337.4,260.9C349.5,260.5 358.9,256.6 364.2,249.3L407.6,188.7C414,179.7 413.8,166.9 407.5,152.4Z" style="fill:white;stroke:white;stroke-width:8.76px;"/>
                </g>
                <g id="SVGID_1_1" serif:id="SVGID_1_" transform="matrix(3.75,0,0,2.10938,0,-7.27596e-12)">
                    <path d="M407.5,152.4C398.8,132.4 378.6,108.7 350.8,88.9C323.1,69 294.2,57.4 272.5,55.6C271.3,55.5 270.1,55.4 269,55.4L133.6,55.4C120.6,55.4 110.6,59.4 105.2,67.1L61.7,127.7C55.4,136.5 55.6,149.4 61.9,163.9C70.6,183.9 90.9,207.6 118.6,227.4C146.4,247.3 175.3,258.9 197,260.7C198.7,260.8 200.3,260.9 201.9,260.9L337.4,260.9C349.5,260.5 358.9,256.6 364.2,249.3L407.6,188.7C414,179.7 413.8,166.9 407.5,152.4Z" style="fill:rgb(14,15,35);"/>
                    <clipPath id="_clip1">
                        <path d="M407.5,152.4C398.8,132.4 378.6,108.7 350.8,88.9C323.1,69 294.2,57.4 272.5,55.6C271.3,55.5 270.1,55.4 269,55.4L133.6,55.4C120.6,55.4 110.6,59.4 105.2,67.1L61.7,127.7C55.4,136.5 55.6,149.4 61.9,163.9C70.6,183.9 90.9,207.6 118.6,227.4C146.4,247.3 175.3,258.9 197,260.7C198.7,260.8 200.3,260.9 201.9,260.9L337.4,260.9C349.5,260.5 358.9,256.6 364.2,249.3L407.6,188.7C414,179.7 413.8,166.9 407.5,152.4Z"/>
                    </clipPath>
                    <g clip-path="url(#_clip1)">
                        <g transform="matrix(1.69268,-2.84385e-16,2.84385e-16,-4.01486,-28779,63286.7)">
                            <path d="M17004.5,15714.1C17005.6,15714.1 17007.4,15713 17008.4,15712.7C17011.9,15711.6 17015.4,15710.5 17019,15709.6C17029.5,15706.9 17040.4,15705.4 17051.2,15706.4C17068.2,15708 17070.9,15718.8 17096.1,15718.8C17121.2,15718.8 17121.8,15707 17151.2,15707C17180.7,15707 17186,15725.9 17213.1,15725.9C17234.2,15725.9 17238.7,15718.8 17263.2,15718.8C17276.9,15718.8 17289.7,15724.7 17292.5,15728.6C17298.5,15737 17305.5,15742.3 17305.7,15744.2C17307.2,15756.9 17274.6,15894.8 17275.9,15894.8L17020.8,15855.3L17004.5,15714.1Z" style="fill:url(#_Linear2);"/>
                        </g>
                    </g>
                </g>
                <g transform="matrix(3.75,0,0,2.10938,0,-7.27596e-12)">
                    <path d="M400.6,155.3C394.7,141.6 386.1,129.4 370.3,114.8L252.6,114.8L330.5,192.7L380.2,192.7C389.6,192.6 397.1,190.1 401.3,184.5L401.6,184.1C406.7,177.2 405.7,166.9 400.6,155.3Z" style="fill:white;"/>
                    <path d="M200.5,62.8L245.5,107.8L362.2,107.8C358.3,104.6 350.8,98 346.5,94.9C320.1,76 292.6,64.7 271.9,63C270.2,62.9 268.6,62.8 267,62.8L200.5,62.8Z" style="fill:white;"/>
                    <path d="M320,192.8L190,62.8L132.5,62.8C122.9,63 115.4,65.6 111.3,71.4L111,71.8C106.3,78.8 107.3,88.9 112.2,100.2C120.6,119.3 140,141.7 166.4,160.7C192.8,179.6 220.3,190.9 241.1,192.6C242.7,192.7 244.2,192.8 245.8,192.8L320,192.8Z" style="fill:white;"/>
                </g>
                <g transform="matrix(5.93168,-4.17091e-17,3.29291e-32,2.62482,-106475,-40533.1)">
                    <path d="M18098.5,15606.8C18103.9,15607.9 18108.6,15607.8 18112.6,15607.8C18113.2,15607.8 18113.7,15607.2 18113.7,15606.5C18113.7,15605.8 18113.2,15605.2 18112.6,15605.2C18108.6,15605.2 18104,15605.3 18098.8,15604.2C18098.2,15604.1 18097.7,15604.6 18097.6,15605.3C18097.5,15606 18097.9,15606.7 18098.5,15606.8ZM18090.3,15604.5C18091.7,15604.9 18093,15605.4 18094.4,15605.7C18095,15605.9 18095.5,15605.4 18095.6,15604.7C18095.7,15604 18095.4,15603.3 18094.8,15603.1C18093.5,15602.7 18092.2,15602.3 18090.9,15601.9C18090.3,15601.6 18089.7,15602.1 18089.6,15602.8C18089.4,15603.6 18089.7,15604.3 18090.3,15604.5ZM18013,15524.5C18016.9,15544.6 18032.1,15563.5 18044.3,15576.8C18044.7,15577.3 18045.4,15577.2 18045.8,15576.7C18046.1,15576.1 18046.1,15575.3 18045.7,15574.9C18033.8,15561.8 18018.9,15543.5 18015.1,15523.9C18015,15523.2 18014.3,15522.8 18013.8,15522.9C18013.3,15523 18012.9,15523.8 18013,15524.5ZM18012.1,15516.4C18012.1,15517.3 18012.2,15518.2 18012.2,15519.1C18012.3,15519.8 18012.8,15520.3 18013.4,15520.2C18014,15520.1 18014.4,15519.5 18014.3,15518.8C18014.2,15517.9 18014.2,15517 18014.2,15516.3C18014.2,15515.5 18013.7,15515 18013.1,15515C18012.5,15515 18012.1,15515.7 18012.1,15516.4Z" style="fill:white;"/>
                </g>
                <g transform="matrix(2.85657,0,0,1.60682,-60318.5,-28689.3)">
                    <path d="M21479.9,18124.5C21479.9,18124.5 21507.6,18124.5 21535.8,18124.4C21537,18124.4 21538,18123.5 21538,18122.3C21538,18121.1 21537,18120.1 21535.8,18120.1C21507.6,18120.2 21479.9,18120.2 21479.9,18120.2C21478.7,18120.2 21477.8,18121.2 21477.8,18122.4C21477.8,18123.5 21478.7,18124.5 21479.9,18124.5ZM21557.3,18124.4C21560.3,18124.4 21563.2,18124.4 21565.9,18124.4C21567.1,18124.4 21568.1,18123.4 21568.1,18122.3C21568.1,18121.1 21567.1,18120.1 21565.9,18120.1C21563.1,18120.1 21560.3,18120.1 21557.3,18120.1C21556.1,18120.1 21555.2,18121.1 21555.2,18122.3C21555.2,18123.5 21556.1,18124.4 21557.3,18124.4ZM21574.5,18124.4C21587,18124.4 21595.6,18124.4 21595.6,18124.4C21596.8,18124.4 21597.8,18123.4 21597.8,18122.2C21597.8,18121 21596.8,18120.1 21595.6,18120.1C21595.6,18120.1 21587,18120.1 21574.5,18120.1C21573.3,18120.1 21572.4,18121.1 21572.4,18122.2C21572.4,18123.4 21573.3,18124.4 21574.5,18124.4Z" style="fill:white;"/>
                </g>
            </g>
        </g>
    </g>
    <defs>
        <linearGradient id="_Linear2" x1="0" y1="0" x2="1" y2="0" gradientUnits="userSpaceOnUse" gradientTransform="matrix(40.9782,-50.3333,-119.385,-17.2765,17082.6,15757.7)"><stop offset="0" style="stop-color:rgb(39,176,230);stop-opacity:1"/><stop offset="0.52" style="stop-color:rgb(194,107,179);stop-opacity:1"/><stop offset="1" style="stop-color:rgb(250,82,160);stop-opacity:1"/></linearGradient>
    </defs>
</svg>
